 <svg version="1.0" xmlns="http://www.w3.org/2000/svg"  width="300.000000pt" height="226.000000pt" viewBox="0 0 300.000000 226.000000"  preserveAspectRatio="xMidYMid meet">  <g transform="translate(0.000000,226.000000) scale(0.100000,-0.100000)" fill="#e05826" stroke="none"> <path d="M1497 2090 c-14 -17 -36 -48 -48 -70 -13 -22 -26 -40 -31 -40 -4 0 -17 14 -30 30 -43 59 -85 33 -115 -73 -11 -39 -19 -54 -24 -45 -7 10 -9 9 -9 -3 0 -9 -9 -24 -20 -34 -18 -17 -21 -16 -63 10 -24 15 -48 37 -53 49 -23 53 -122 12 -182 -74 -23 -34 -31 -40 -54 -36 -22 4 -33 -2 -61 -34 l-34 -40 -11 25 c-15 32 -36 32 -67 0 -33 -33 -35 -98 -3 -132 18 -19 20 -27 11 -41 -6 -10 -21 -16 -34 -15 -13 1 -49 0 -78 -3 -44 -5 -61 -12 -87 -37 -18 -18 -40 -37 -51 -43 -12 -8 -20 -28 -25 -65 -3 -30 -10 -76 -14 -103 l-7 -50 37 22 36 22 -14 -27 c-12 -24 -12 -29 0 -38 20 -14 -6 -49 -57 -75 -45 -24 -49 -41 -13 -69 28 -22 49 -78 34 -95 -5 -7 -12 -34 -15 -61 -6 -42 -4 -55 13 -75 17 -21 22 -23 36 -11 14 12 19 11 35 -3 10 -9 25 -14 35 -10 9 3 16 3 16 0 0 -14 -54 -113 -74 -135 l-21 -24 25 7 c14 4 32 10 41 12 12 4 18 -3 23 -30 8 -41 14 -43 49 -16 30 24 37 25 37 5 0 -8 5 -15 11 -15 6 0 8 -9 4 -21 -4 -11 -1 -40 6 -64 13 -44 13 -44 31 -25 11 11 25 20 33 20 24 0 55 -74 55 -131 l0 -51 -21 23 c-17 19 -15 14 6 -26 41 -74 45 -75 45 -11 0 51 2 57 15 46 8 -7 21 -10 28 -7 9 3 22 -11 36 -40 20 -42 23 -44 39 -29 28 24 73 8 90 -34 12 -31 12 -33 -2 -21 -13 11 -16 11 -16 -1 0 -8 6 -23 14 -33 14 -19 15 -19 34 -2 14 13 27 16 48 11 23 -6 32 -2 52 22 22 27 23 27 17 6 -7 -23 -7 -23 19 -7 26 17 26 17 32 -14 4 -17 9 -31 12 -31 4 0 26 19 49 42 24 23 43 37 43 32 0 -12 -96 -105 -145 -142 l-30 -22 29 10 c41 15 117 72 144 109 27 37 39 39 46 9 3 -13 3 52 1 144 l-3 168 42 -29 c68 -47 103 -61 148 -61 67 0 112 17 161 60 l45 40 4 -153 c2 -90 9 -160 16 -172 11 -19 11 -19 12 3 0 12 2 22 4 22 2 0 48 -16 101 -35 129 -47 144 -40 20 9 -88 35 -96 40 -80 53 27 19 40 16 53 -12 6 -14 16 -25 21 -25 5 0 33 20 62 45 55 47 76 50 126 19 32 -20 45 -17 75 16 15 18 36 30 50 30 23 0 48 16 48 31 0 4 -10 5 -22 2 -18 -4 -20 -3 -8 6 8 5 32 13 52 16 34 6 38 10 38 36 0 27 2 29 40 29 30 0 45 6 58 22 9 13 37 42 61 66 43 41 43 43 26 62 -27 30 -12 54 29 47 41 -7 68 10 86 53 10 23 10 33 1 44 -8 9 -10 28 -5 50 3 20 4 43 0 51 -5 14 -11 13 -45 -5 -22 -11 -43 -20 -46 -20 -12 0 -4 20 19 47 26 31 76 149 76 179 -1 18 -1 18 -16 -1 -14 -19 -15 -17 -12 25 3 45 3 45 -29 44 -37 -2 -37 -2 -22 81 9 51 9 61 -5 71 -10 7 -16 26 -16 53 0 36 -3 41 -17 37 -15 -5 -18 1 -18 39 0 29 -6 50 -17 61 -16 17 -18 17 -38 -1 -11 -10 -21 -16 -23 -14 -2 2 -11 16 -20 32 -10 15 -26 27 -38 27 -13 0 -20 6 -18 18 3 39 -2 52 -20 52 -11 0 -23 -4 -26 -10 -17 -28 -25 -4 -19 60 l7 70 -33 0 c-31 0 -32 1 -26 35 9 44 -9 53 -53 30 -20 -10 -31 -12 -31 -4 0 6 -8 21 -18 34 -16 21 -18 31 -9 84 7 46 7 64 -3 76 -17 21 -21 20 -80 -21 -49 -34 -52 -35 -66 -17 -7 10 -14 14 -14 8 0 -5 -9 4 -19 22 -15 23 -28 32 -53 35 -25 2 -34 9 -38 27 -13 57 -78 53 -109 -7 l-20 -37 -1 36 c0 19 -6 44 -14 54 -13 19 -15 18 -36 -18 -12 -20 -28 -37 -35 -37 -7 0 -22 16 -34 35 -25 43 -51 45 -84 5z m89 -724 c-9 -35 5 -40 25 -9 l18 27 6 -27 c4 -15 14 -31 21 -35 12 -7 12 -15 -2 -57 -9 -28 -24 -58 -33 -68 -15 -18 -14 -18 19 -13 130 24 124 24 243 -5 44 -11 47 -30 17 -82 -15 -25 -19 -43 -14 -63 5 -18 3 -25 -4 -20 -6 4 -8 -1 -5 -13 5 -19 -29 -207 -49 -270 -12 -40 -137 -179 -181 -203 -60 -32 -111 -33 -170 -4 -70 35 -179 116 -209 158 -29 38 -88 209 -93 266 -3 49 -20 106 -47 158 -12 23 -19 48 -15 56 7 21 141 42 219 35 35 -3 54 -3 43 1 -43 15 -23 62 27 62 23 0 33 8 51 37 l22 37 8 -48 c10 -61 4 -80 -24 -73 -15 4 -19 2 -15 -10 3 -8 6 -19 6 -24 0 -5 33 -8 73 -8 39 1 60 4 45 6 -24 4 -26 7 -18 29 6 14 10 56 10 93 0 39 5 72 12 79 18 18 21 15 14 -12z m556 -431 c28 -19 48 -43 66 -83 93 -203 -81 -429 -246 -319 -40 26 -98 123 -90 148 2 7 17 -15 34 -47 36 -74 78 -104 144 -104 60 0 106 30 140 90 33 61 35 166 3 227 -56 105 -162 127 -248 51 -43 -37 -47 -17 -4 23 59 55 132 60 201 14z m-1070 -5 c32 -13 74 -47 67 -55 -4 -3 -24 5 -44 20 -76 51 -174 25 -221 -59 -84 -150 23 -339 173 -306 49 12 101 66 124 131 l19 54 -4 -44 c-9 -90 -89 -165 -178 -165 -144 0 -231 193 -151 336 47 83 138 120 215 88z"/> <path d="M1408 1183 c7 -3 16 -2 19 1 4 3 -2 6 -13 5 -11 0 -14 -3 -6 -6z"/> <path d="M1227 1170 c-37 -11 -57 -29 -57 -49 1 -11 5 -8 15 9 13 22 14 23 15 5 1 -19 2 -19 14 -3 7 10 26 24 42 33 31 16 17 19 -29 5z"/> <path d="M1308 1173 c6 -2 18 -2 25 0 6 3 1 5 -13 5 -14 0 -19 -2 -12 -5z"/> <path d="M1377 1161 c26 -16 73 -25 73 -14 0 5 -46 22 -78 29 -26 6 -26 5 5 -15z"/> <path d="M1640 1171 c-21 -6 -17 -8 24 -13 30 -4 63 -1 85 7 l36 14 -60 -1 c-33 0 -71 -3 -85 -7z"/> <path d="M1813 1163 c4 -3 10 -3 14 0 3 4 0 7 -7 7 -7 0 -10 -3 -7 -7z"/> <path d="M1851 1133 c11 -34 19 -42 19 -20 0 7 -7 22 -15 33 -13 17 -14 16 -4 -13z"/> <path d="M1650 1120 c13 -8 13 -10 -1 -10 -9 0 -24 -9 -35 -21 -19 -21 -19 -21 1 -18 14 3 20 -1 19 -13 -2 -26 65 -24 121 5 42 21 63 43 28 30 -10 -4 -14 -2 -10 4 4 7 -6 16 -25 22 -38 13 -41 14 -33 1 3 -5 0 -8 -7 -6 -7 3 -26 7 -43 10 -22 5 -26 4 -15 -4z m93 -45 c0 -6 -7 -11 -16 -13 -12 -3 -15 1 -11 13 7 17 25 17 27 0z m-73 -5 c0 -5 8 -7 18 -3 14 5 15 3 4 -8 -10 -11 -15 -10 -29 4 -11 11 -13 17 -5 17 7 0 12 -4 12 -10z"/> <path d="M1267 1113 c-9 -2 -14 -9 -10 -15 4 -7 0 -9 -9 -5 -15 5 -38 -9 -38 -25 0 -4 8 -8 19 -8 10 0 24 -7 31 -15 14 -17 106 -21 130 -5 13 8 12 10 -2 10 -10 0 -18 5 -18 11 0 6 9 9 20 6 32 -8 12 13 -27 29 -19 8 -44 12 -56 9 -17 -5 -19 -4 -7 4 13 10 13 11 0 10 -8 -1 -23 -3 -33 -6z m50 -50 c-4 -3 -7 0 -7 7 0 7 3 10 7 7 3 -4 3 -10 0 -14z m-23 -8 c3 -8 2 -15 -3 -15 -5 0 -14 7 -21 15 -10 12 -10 15 3 15 8 0 17 -7 21 -15z m43 -12 c-4 -3 -10 -3 -14 0 -3 4 0 7 7 7 7 0 10 -3 7 -7z"/> <path d="M1461 1104 c0 -11 3 -14 6 -6 3 7 2 16 -1 19 -3 4 -6 -2 -5 -13z"/> <path d="M1535 1090 c3 -5 8 -10 11 -10 3 0 2 5 -1 10 -3 6 -8 10 -11 10 -3 0 -2 -4 1 -10z"/> <path d="M1570 1080 c0 -7 3 -10 7 -7 3 4 3 10 0 14 -4 3 -7 0 -7 -7z"/> <path d="M1170 1070 c0 -7 3 -10 7 -7 3 4 3 10 0 14 -4 3 -7 0 -7 -7z"/> <path d="M1480 1060 c0 -7 3 -10 7 -7 3 4 3 10 0 14 -4 3 -7 0 -7 -7z"/> <path d="M1580 1053 c0 -5 5 -15 11 -23 9 -13 10 -13 5 2 -3 10 1 18 12 21 12 3 11 5 -5 6 -13 0 -23 -2 -23 -6z"/> <path d="M1180 1030 c0 -7 3 -10 7 -7 3 4 3 10 0 14 -4 3 -7 0 -7 -7z"/> <path d="M1625 980 c10 -11 20 -20 23 -20 3 0 -3 9 -13 20 -10 11 -20 20 -23 20 -3 0 3 -9 13 -20z"/> <path d="M1215 970 c10 -11 20 -20 23 -20 3 0 -3 9 -13 20 -10 11 -20 20 -23 20 -3 0 3 -9 13 -20z"/> <path d="M1399 973 c-13 -16 -12 -17 4 -4 16 13 21 21 13 21 -2 0 -10 -8 -17 -17z"/> <path d="M1819 973 c-13 -16 -12 -17 4 -4 16 13 21 21 13 21 -2 0 -10 -8 -17 -17z"/> <path d="M1590 976 c0 -2 8 -10 18 -17 15 -13 16 -12 3 4 -13 16 -21 21 -21 13z"/> <path d="M1180 966 c0 -2 8 -10 18 -17 15 -13 16 -12 3 4 -13 16 -21 21 -21 13z"/> <path d="M1824 948 c-4 -7 -3 -8 4 -4 12 7 16 16 8 16 -3 0 -8 -5 -12 -12z"/> <path d="M1263 943 c4 -3 10 -3 14 0 3 4 0 7 -7 7 -7 0 -10 -3 -7 -7z"/> <path d="M1333 943 c4 -3 10 -3 14 0 3 4 0 7 -7 7 -7 0 -10 -3 -7 -7z"/> <path d="M1635 940 c3 -5 8 -10 11 -10 3 0 2 5 -1 10 -3 6 -8 10 -11 10 -3 0 -2 -4 1 -10z"/> <path d="M1693 943 c4 -3 10 -3 14 0 3 4 0 7 -7 7 -7 0 -10 -3 -7 -7z"/> <path d="M1758 943 c7 -3 16 -2 19 1 4 3 -2 6 -13 5 -11 0 -14 -3 -6 -6z"/> <path d="M1363 923 c4 -3 10 -3 14 0 3 4 0 7 -7 7 -7 0 -10 -3 -7 -7z"/> <path d="M1773 923 c4 -3 10 -3 14 0 3 4 0 7 -7 7 -7 0 -10 -3 -7 -7z"/> <path d="M1590 878 c0 -9 -6 -19 -12 -21 -10 -4 -10 -6 0 -6 14 -1 28 26 18 36 -3 4 -6 -1 -6 -9z"/> <path d="M1469 766 c-8 -6 -24 -24 -36 -40 -20 -25 -21 -31 -8 -55 18 -36 54 -51 121 -51 48 0 60 4 85 29 16 16 29 34 29 40 0 6 -17 28 -37 49 -34 36 -43 40 -88 40 -28 0 -58 -5 -66 -12z m121 -46 c13 -8 12 -10 -5 -11 -11 -1 -31 -3 -45 -4 -38 -5 -75 6 -58 16 18 12 89 11 108 -1z"/> </g> </svg> 