 <svg version="1.0" xmlns="http://www.w3.org/2000/svg"  width="300.000000pt" height="226.000000pt" viewBox="0 0 300.000000 226.000000"  preserveAspectRatio="xMidYMid meet">  <g transform="translate(0.000000,226.000000) scale(0.100000,-0.100000)" fill="#efefef" stroke="none"> <path d="M1495 2089 c-14 -18 -35 -49 -46 -70 -23 -45 -40 -49 -59 -13 -17 30 -43 46 -63 38 -16 -6 -39 -54 -61 -129 -8 -27 -15 -40 -15 -27 -1 12 -6 22 -12 22 -5 0 -7 -5 -4 -10 9 -15 -4 -47 -22 -54 -20 -8 -96 40 -109 68 -24 54 -121 13 -186 -79 -27 -38 -33 -42 -50 -32 -17 11 -24 7 -57 -31 l-37 -43 -12 26 c-15 32 -36 32 -67 0 -33 -33 -35 -98 -3 -132 36 -39 16 -56 -68 -58 -77 -2 -116 -17 -133 -49 -7 -12 -22 -26 -34 -31 -18 -8 -23 -21 -29 -75 -3 -36 -11 -78 -17 -93 -6 -16 -11 -33 -11 -38 0 -17 27 -9 54 16 28 26 35 13 11 -19 -13 -17 -13 -21 3 -32 16 -11 15 -14 -3 -34 -11 -12 -37 -31 -57 -41 -44 -23 -48 -40 -12 -68 28 -22 49 -78 34 -95 -5 -7 -12 -34 -15 -61 -6 -42 -4 -55 13 -75 19 -24 21 -24 40 -7 18 17 20 17 35 -5 12 -19 18 -21 28 -10 29 28 27 8 -6 -57 -19 -39 -43 -74 -52 -80 -27 -15 -7 -26 22 -13 38 17 42 15 49 -23 8 -40 14 -42 49 -15 30 24 37 25 37 5 0 -8 7 -15 15 -15 8 0 15 -4 15 -10 0 -5 -5 -10 -11 -10 -11 0 -10 -8 8 -93 6 -33 20 -35 25 -4 2 14 11 23 25 25 29 4 55 -45 63 -120 6 -62 2 -70 -18 -37 -7 12 -15 19 -18 16 -2 -2 12 -31 31 -63 l36 -59 -1 60 c-2 81 -2 81 14 60 7 -10 20 -16 28 -13 10 4 22 -8 37 -39 20 -42 23 -44 39 -30 25 23 70 10 87 -24 19 -36 19 -45 0 -29 -11 9 -15 9 -15 1 0 -11 17 -49 26 -60 2 -2 15 10 29 25 18 19 28 25 32 17 9 -23 35 -14 70 24 27 29 31 32 19 11 -21 -36 -20 -45 3 -24 24 22 41 13 41 -20 0 -33 11 -30 54 16 20 22 42 40 49 40 18 0 -92 -107 -146 -142 -26 -17 -46 -33 -43 -35 11 -12 115 57 167 110 l58 59 5 -29 c2 -15 3 47 1 139 l-3 167 66 -44 c61 -41 72 -45 127 -45 70 0 127 23 169 69 17 17 32 31 35 31 3 0 6 -66 6 -148 0 -144 7 -202 24 -202 4 0 6 11 3 25 -2 14 -1 25 3 25 4 0 47 -15 94 -34 83 -32 151 -52 151 -43 0 2 -50 23 -111 47 -100 39 -110 45 -93 57 26 19 39 16 52 -12 6 -14 16 -25 22 -25 9 0 96 73 111 94 4 4 10 3 13 -3 4 -6 18 -11 30 -11 13 0 29 -7 36 -15 19 -23 43 -18 72 15 15 18 36 30 50 30 24 0 48 16 48 32 0 5 -9 4 -19 -2 -27 -14 -36 -13 -22 4 6 8 32 17 56 21 42 6 45 8 45 36 0 27 3 29 38 29 44 0 48 3 85 52 15 20 41 45 57 55 35 20 37 29 10 38 -22 7 -27 34 -9 52 8 8 20 8 41 1 34 -12 58 4 79 54 11 26 10 32 -3 42 -10 7 -12 17 -7 31 10 26 11 85 2 85 -5 0 -27 -11 -50 -25 -50 -28 -58 -14 -19 32 25 30 76 148 76 176 0 9 -4 17 -10 17 -5 0 -10 -6 -10 -14 0 -8 -5 -18 -12 -22 -7 -5 -9 -2 -5 9 3 8 9 32 13 51 6 32 4 36 -16 36 -12 0 -30 -5 -42 -11 -17 -9 -19 -8 -15 8 3 10 11 45 17 77 11 54 10 61 -6 73 -14 10 -17 24 -15 54 2 38 1 40 -20 34 -19 -6 -21 -4 -15 11 4 11 8 21 9 24 1 3 -5 22 -12 43 -14 42 -29 46 -56 17 -18 -19 -18 -19 -34 13 -10 20 -25 33 -39 35 -19 3 -23 8 -18 26 3 13 0 31 -7 40 -12 16 -14 16 -40 -4 l-28 -22 7 77 7 78 -33 -5 c-32 -5 -32 -4 -27 29 10 57 1 66 -44 43 -26 -14 -39 -16 -39 -8 0 6 -9 21 -20 32 -18 20 -18 27 -7 89 9 58 9 70 -3 77 -22 14 -23 13 -80 -26 -49 -34 -52 -35 -66 -17 -7 10 -14 14 -14 8 0 -5 -9 4 -19 22 -15 23 -28 32 -53 35 -25 2 -34 9 -38 27 -13 57 -78 53 -109 -7 l-20 -37 -1 36 c0 19 -6 44 -14 54 -13 19 -15 18 -36 -18 -27 -46 -46 -47 -67 -2 -21 45 -52 46 -88 4z m78 -34 c41 -41 49 -42 75 -14 l20 20 6 -24 c10 -42 37 -42 71 -3 17 20 35 36 41 36 5 0 18 -16 28 -35 15 -27 26 -35 46 -35 19 0 33 -9 45 -26 9 -14 31 -32 48 -39 30 -12 34 -11 69 17 50 39 61 30 53 -41 -6 -52 -4 -60 25 -99 26 -36 33 -41 50 -32 26 14 30 13 30 -10 0 -21 26 -53 52 -62 13 -6 14 -13 5 -48 -15 -53 -1 -76 42 -74 17 1 28 -2 25 -8 -7 -12 24 -48 42 -48 8 0 20 -13 29 -30 17 -34 19 -34 46 -19 28 15 51 -5 40 -34 -10 -27 3 -67 23 -67 9 0 12 -7 9 -20 -3 -11 0 -27 7 -35 9 -11 11 -35 7 -83 -7 -75 6 -111 37 -99 13 5 16 0 16 -28 0 -18 4 -37 10 -40 12 -8 -18 -87 -53 -139 -25 -35 -26 -41 -13 -60 14 -22 26 -24 62 -12 18 5 20 2 21 -31 1 -21 0 -52 -3 -69 -4 -27 -8 -31 -29 -26 -61 11 -107 -28 -86 -74 9 -20 5 -29 -38 -74 -34 -36 -55 -50 -74 -50 -32 0 -67 -27 -67 -52 0 -10 -3 -17 -7 -17 -27 4 -48 -5 -74 -31 -16 -16 -43 -39 -59 -50 l-30 -21 -53 19 c-30 11 -56 16 -62 11 -5 -5 -28 -24 -50 -44 -22 -19 -43 -35 -46 -35 -3 0 -14 9 -24 20 -23 25 -36 25 -68 0 -14 -11 -28 -17 -31 -12 -3 5 -6 67 -7 139 -1 133 3 155 42 196 18 20 19 20 25 1 17 -54 38 -93 64 -120 39 -39 60 -56 60 -48 0 3 7 1 15 -6 9 -7 36 -14 60 -14 91 -2 180 78 208 185 18 71 13 129 -19 199 -66 145 -221 182 -317 76 -17 -20 -18 -19 -12 22 3 23 7 61 10 84 3 22 9 46 13 52 10 16 14 57 8 82 -5 17 -18 25 -58 35 -29 7 -60 12 -68 12 -8 0 -19 3 -25 7 -5 5 -30 5 -55 0 -52 -10 -63 -1 -48 42 19 54 -32 131 -89 135 -47 4 -63 -25 -63 -112 0 -87 -16 -118 -17 -34 -1 67 -18 95 -49 85 -11 -3 -24 -16 -29 -28 -6 -14 -25 -27 -49 -33 -22 -6 -46 -21 -54 -33 -11 -17 -24 -22 -56 -22 -23 0 -66 -6 -96 -14 -30 -8 -57 -13 -59 -11 -2 2 -10 -2 -17 -10 -20 -20 -17 -70 7 -117 11 -22 22 -61 23 -85 2 -24 6 -46 9 -50 4 -3 4 -10 1 -15 -3 -4 -19 1 -36 13 -37 26 -112 36 -160 20 -35 -11 -88 -57 -115 -97 -18 -28 -24 -56 -30 -136 -8 -105 37 -183 136 -236 37 -19 158 -21 146 -2 -3 6 -1 10 6 10 27 0 79 53 105 107 15 32 27 64 27 71 0 19 5 15 32 -26 14 -22 36 -44 48 -51 21 -11 22 -19 25 -141 l4 -130 -26 0 c-14 0 -26 -3 -26 -8 0 -4 -9 -13 -20 -20 -15 -9 -25 -9 -45 0 -14 6 -25 15 -25 20 0 16 -35 7 -59 -16 -35 -32 -85 -26 -101 14 -14 34 -50 54 -95 53 -29 -1 -35 3 -44 28 -9 26 -20 34 -44 30 -18 -3 -47 21 -47 39 0 10 -4 22 -10 25 -5 3 -10 15 -10 25 0 30 -47 71 -75 66 -23 -4 -41 16 -30 35 7 11 -12 48 -36 72 -22 21 -26 21 -46 1 -14 -14 -17 -13 -31 15 -8 17 -19 31 -24 31 -7 0 -6 5 1 13 6 8 18 33 26 57 17 49 8 70 -31 70 -12 0 -29 7 -37 15 -11 10 -17 11 -19 3 -2 -6 -12 -9 -21 -5 -21 8 -23 61 -4 97 17 32 6 84 -24 116 -22 24 -22 24 -3 39 10 9 27 20 37 26 28 16 47 69 33 91 -8 14 -8 21 2 27 12 7 12 12 1 30 -15 23 -25 26 -34 11 -11 -17 -28 -11 -20 8 3 9 8 37 11 62 3 36 11 51 39 76 19 17 33 33 30 36 -5 5 81 32 95 31 3 -1 19 -4 36 -7 25 -6 35 -2 57 20 33 33 34 46 4 78 -41 44 -11 131 31 92 10 -9 22 -16 26 -16 15 0 65 48 58 55 -4 4 8 5 26 3 35 -5 40 -1 108 79 19 23 51 47 70 53 32 11 36 10 54 -13 31 -39 106 -80 127 -68 36 19 76 75 88 121 17 72 30 79 74 38 17 -16 38 -27 46 -24 18 6 75 85 75 102 0 10 23 31 37 34 0 0 17 -16 36 -35z m12 -695 c-8 -38 7 -39 25 -2 l13 27 12 -28 c6 -16 17 -32 23 -36 9 -5 8 -20 -4 -57 -19 -58 -45 -84 -85 -84 -27 0 -28 2 -18 27 5 15 9 55 8 89 -1 39 3 69 11 79 18 22 22 19 15 -15z m-96 -120 c1 -8 -4 -22 -9 -30 -7 -12 -12 -12 -22 -2 -6 6 -16 12 -22 12 -6 0 -5 -5 2 -12 21 -21 13 -27 -20 -17 -18 5 -44 9 -58 8 -14 -1 4 -8 40 -15 38 -9 94 -13 135 -11 100 6 225 29 225 41 0 8 3 7 8 0 4 -6 38 -17 77 -25 81 -17 89 -30 55 -91 -12 -22 -19 -46 -15 -57 7 -22 -49 -300 -66 -334 -18 -33 -129 -149 -167 -173 -45 -29 -103 -37 -149 -21 -54 19 -185 109 -224 155 -40 47 -101 220 -114 325 -5 46 -26 105 -40 117 -8 7 -15 24 -15 39 0 25 4 27 65 39 35 6 84 12 109 12 52 0 78 8 70 21 -10 17 17 39 48 39 23 0 33 8 51 37 l22 38 7 -40 c4 -22 7 -47 7 -55z m627 -289 c53 -24 88 -71 109 -144 20 -70 14 -130 -21 -198 -51 -102 -150 -135 -241 -79 -49 30 -117 160 -84 160 5 0 12 -13 16 -28 24 -111 147 -168 236 -109 105 69 110 286 8 360 -63 45 -151 35 -200 -23 -32 -38 -48 -24 -17 15 24 31 91 65 128 65 14 0 44 -9 66 -19z m-1013 -37 c20 -13 37 -29 37 -34 0 -14 -5 -13 -46 15 -26 18 -50 25 -84 25 -197 0 -227 -336 -34 -389 78 -21 164 35 190 125 17 59 40 76 29 22 -26 -119 -130 -198 -225 -169 -192 57 -192 377 0 429 46 12 87 5 133 -24z m1010 -21 c55 -38 72 -75 71 -158 0 -112 -54 -181 -137 -176 -54 3 -92 32 -119 92 -15 33 -31 52 -45 55 -26 7 -28 20 -10 89 11 41 17 50 35 50 12 0 33 12 47 27 14 15 36 30 48 32 12 3 31 7 42 9 11 3 22 5 24 6 3 0 22 -11 44 -26z m-1043 -12 c0 -17 56 -39 74 -29 22 12 20 14 44 -57 17 -54 18 -60 3 -64 -27 -6 -38 -20 -51 -64 -6 -24 -25 -58 -41 -75 -26 -28 -37 -32 -79 -32 -94 0 -148 63 -146 170 3 101 54 159 144 160 28 0 52 -4 52 -9z"/> <path d="M1210 1162 c-34 -17 -35 -18 -34 -78 1 -103 40 -144 133 -144 62 0 108 30 139 90 39 77 27 114 -47 139 -52 17 -150 14 -191 -7z m178 -7 c12 -9 29 -15 39 -13 11 2 20 -6 26 -23 8 -20 4 -38 -16 -83 -21 -46 -33 -60 -64 -72 -48 -21 -127 -14 -154 12 -27 28 -47 125 -31 156 12 23 12 23 6 1 -6 -27 12 -31 21 -4 3 10 15 23 28 29 34 16 119 14 145 -3z"/> <path d="M1298 1123 c-10 -2 -18 -8 -18 -13 0 -5 -7 -6 -17 -3 -12 5 -14 3 -8 -7 6 -10 4 -12 -7 -7 -9 3 -23 -2 -32 -12 -16 -17 -16 -19 -1 -25 9 -3 20 -4 25 -1 4 3 13 -2 20 -10 21 -26 160 -15 160 13 0 16 -59 42 -97 42 -28 0 -34 3 -23 10 8 6 29 8 45 5 24 -4 26 -3 10 4 -22 10 -31 11 -57 4z m5 -60 c3 9 11 17 16 17 6 0 8 -7 5 -15 -5 -11 -2 -13 10 -9 9 3 16 1 16 -5 0 -6 -16 -9 -40 -7 -47 4 -61 13 -40 26 11 7 17 4 21 -7 5 -15 6 -15 12 0z m102 -3 c3 -5 -3 -10 -14 -10 -12 0 -21 5 -21 10 0 6 6 10 14 10 8 0 18 -4 21 -10z"/> <path d="M1627 1170 c-16 -5 -35 -14 -43 -21 -39 -32 10 -164 71 -193 18 -9 56 -16 84 -16 71 0 107 33 123 113 14 68 1 106 -42 118 -35 10 -159 9 -193 -1z m216 -33 c19 -22 18 -54 -4 -125 -27 -85 -187 -82 -232 5 l-15 28 73 0 c56 0 77 4 93 18 11 10 23 17 28 15 5 -2 9 2 10 7 0 6 -9 9 -20 7 -15 -2 -17 0 -8 6 9 6 6 12 -13 20 -33 15 -56 16 -35 1 11 -8 7 -9 -17 -4 -33 6 -77 -10 -107 -40 -15 -15 -16 -13 -16 19 0 25 6 39 22 50 25 18 84 21 93 6 4 -7 11 -8 18 -2 33 27 103 21 130 -11z m-157 -66 c10 8 14 9 14 0 0 -16 -29 -26 -42 -13 -6 6 -7 16 -2 24 7 10 9 9 12 -5 3 -14 7 -16 18 -6z m64 9 c0 -5 -2 -10 -4 -10 -2 0 -12 -3 -20 -6 -12 -5 -15 -2 -10 10 7 17 34 22 34 6z m-110 -14 c0 -9 -7 -12 -21 -9 -16 4 -17 8 -7 14 19 13 28 11 28 -5z"/> <path d="M1645 1130 c-13 -5 -14 -9 -5 -9 8 0 24 4 35 9 13 5 14 9 5 9 -8 0 -24 -4 -35 -9z"/> <path d="M1484 1075 c-7 -19 -14 -38 -14 -43 0 -5 -16 -27 -36 -50 -56 -66 -140 -78 -224 -31 l-35 20 27 -25 c31 -28 99 -42 153 -32 61 12 110 68 139 159 11 36 40 18 71 -46 43 -90 113 -129 200 -113 33 7 105 58 105 76 0 5 -13 -4 -28 -20 -84 -84 -236 -46 -272 67 -25 77 -62 94 -86 38z"/> <path d="M1461 905 c-7 -19 -10 -39 -7 -44 3 -5 37 -9 76 -9 65 0 70 2 70 22 -1 11 -8 32 -16 46 -14 23 -15 24 -10 3 3 -13 8 -31 12 -40 4 -16 -3 -18 -60 -19 -37 0 -66 1 -66 2 0 1 7 18 15 38 8 20 12 36 7 36 -4 0 -14 -16 -21 -35z"/> <path d="M1445 739 c-34 -38 -35 -41 -21 -67 19 -37 55 -52 126 -52 56 0 60 2 86 35 l26 35 -26 35 c-34 44 -50 52 -108 53 -43 0 -51 -4 -83 -39z m152 -25 c2 -6 -23 -10 -68 -10 -68 0 -71 1 -52 16 15 12 33 15 68 11 27 -3 50 -11 52 -17z m-107 -49 c-1 -5 7 -12 17 -16 14 -6 15 -8 2 -8 -8 -1 -26 10 -39 24 l-24 26 23 -9 c12 -4 22 -12 21 -17z m130 15 c0 -5 -5 -10 -11 -10 -5 0 -7 -4 -4 -10 3 -5 2 -10 -3 -10 -15 0 -22 28 -9 34 20 8 27 7 27 -4z m-47 -37 c-7 -2 -21 -2 -30 0 -10 3 -4 5 12 5 17 0 24 -2 18 -5z"/> </g> </svg> 